<svg width="22" height="22" viewBox="0 0 22 22" fill="none" xmlns="http://www.w3.org/2000/svg">
<path d="M1 17C1 15.46 1 14.69 1.347 14.124C1.541 13.807 1.807 13.541 2.124 13.347C2.689 13 3.46 13 5 13C6.54 13 7.31 13 7.876 13.347C8.193 13.541 8.459 13.807 8.653 14.124C9 14.689 9 15.46 9 17C9 18.54 9 19.31 8.653 19.877C8.459 20.193 8.193 20.459 7.876 20.653C7.311 21 6.54 21 5 21C3.46 21 2.69 21 2.124 20.653C1.80735 20.4593 1.54108 20.1934 1.347 19.877C1 19.31 1 18.54 1 17ZM13 17C13 15.46 13 14.69 13.347 14.124C13.541 13.807 13.807 13.541 14.124 13.347C14.689 13 15.46 13 17 13C18.54 13 19.31 13 19.877 13.347C20.193 13.541 20.459 13.807 20.653 14.124C21 14.689 21 15.46 21 17C21 18.54 21 19.31 20.653 19.877C20.4589 20.1931 20.1931 20.4589 19.877 20.653C19.31 21 18.54 21 17 21C15.46 21 14.69 21 14.124 20.653C13.8073 20.4593 13.5411 20.1934 13.347 19.877C13 19.31 13 18.54 13 17ZM1 5C1 3.46 1 2.69 1.347 2.124C1.541 1.807 1.807 1.541 2.124 1.347C2.689 1 3.46 1 5 1C6.54 1 7.31 1 7.876 1.347C8.193 1.541 8.459 1.807 8.653 2.124C9 2.689 9 3.46 9 5C9 6.54 9 7.31 8.653 7.876C8.459 8.193 8.193 8.459 7.876 8.653C7.311 9 6.54 9 5 9C3.46 9 2.69 9 2.124 8.653C1.80724 8.45904 1.54096 8.19277 1.347 7.876C1 7.311 1 6.54 1 5ZM13 5C13 3.46 13 2.69 13.347 2.124C13.541 1.807 13.807 1.541 14.124 1.347C14.689 1 15.46 1 17 1C18.54 1 19.31 1 19.877 1.347C20.193 1.541 20.459 1.807 20.653 2.124C21 2.689 21 3.46 21 5C21 6.54 21 7.31 20.653 7.876C20.459 8.193 20.193 8.459 19.877 8.653C19.31 9 18.54 9 17 9C15.46 9 14.69 9 14.124 8.653C13.8072 8.45904 13.541 8.19277 13.347 7.876C13 7.311 13 6.54 13 5Z" stroke="black" stroke-width="1.5" stroke-linecap="round" stroke-linejoin="round"/>
</svg>
